<?xml version="1.0" encoding="utf-8"?>
<!-- Generator: Adobe Illustrator 13.0.2, SVG Export Plug-In . SVG Version: 6.00 Build 14948)  -->
<!DOCTYPE svg PUBLIC "-//W3C//DTD SVG 1.1//EN" "http://www.w3.org/Graphics/SVG/1.1/DTD/svg11.dtd">
<svg version="1.1" id="Ebene_1" xmlns="http://www.w3.org/2000/svg" xmlns:xlink="http://www.w3.org/1999/xlink" x="0px" y="0px"
	 width="470px" height="102px" viewBox="18.53 18.75 470 102" enable-background="new 18.53 18.75 470 102" xml:space="preserve">
<g>
	
		<linearGradient id="SVGID_1_" gradientUnits="userSpaceOnUse" x1="48.6167" y1="96.7646" x2="48.6167" y2="18.7852" gradientTransform="matrix(1 0 0 -1 8.3398 114.04)">
		<stop  offset="0" style="stop-color:#FF7733"/>
		<stop  offset="1" style="stop-color:#FF5500"/>
	</linearGradient>
	<path fill="url(#SVGID_1_)" d="M46.087,20h47.826v47.826H41.739v26.087H20V46.087h52.174v-4.348H46.087V20z"/>
	
		<linearGradient id="SVGID_2_" gradientUnits="userSpaceOnUse" x1="74.7036" y1="-6.4434" x2="74.7036" y2="67.7066" gradientTransform="matrix(1 0 0 -1 8.3398 114.04)">
		<stop  offset="0" style="stop-color:#808080"/>
		<stop  offset="1" style="stop-color:#B2B2B2"/>
	</linearGradient>
	<path fill="url(#SVGID_2_)" d="M93.913,120H46.087V72.174h52.174V46.087H120v47.826H67.826v4.348h26.087V120z"/>
</g>
<g>
	<path fill="#FF661A" d="M155.816,94.535c-2.681,0-5.309-0.477-7.884-1.43c-2.576-0.952-4.886-2.205-6.932-3.756l2.752-4.445
		c1.623,1.199,3.51,2.169,5.662,2.91c2.151,0.74,4.25,1.146,6.297,1.217c1.27,0,2.558-0.159,3.862-0.477
		c1.305-0.316,2.487-0.793,3.546-1.429c1.058-0.635,1.922-1.464,2.593-2.487c0.67-1.022,0.97-2.274,0.899-3.757
		c0-1.128-0.247-2.081-0.741-2.856c-0.494-0.776-1.111-1.43-1.852-1.959c-0.741-0.529-1.57-0.987-2.487-1.375
		c-0.917-0.389-1.799-0.759-2.645-1.111c-0.706-0.282-1.412-0.564-2.117-0.848c-0.706-0.281-1.446-0.528-2.223-0.74
		c-1.411-0.564-2.839-1.129-4.286-1.693c-1.446-0.564-2.769-1.34-3.968-2.328c-1.27-0.917-2.328-2.064-3.175-3.44
		c-0.847-1.375-1.27-3.157-1.27-5.344s0.458-4.146,1.375-5.874s2.134-3.175,3.652-4.339c1.517-1.164,3.245-2.046,5.185-2.646
		c1.94-0.6,3.934-0.899,5.98-0.899c2.398,0,4.709,0.353,6.932,1.058c2.223,0.706,4.392,1.658,6.508,2.857l-2.857,4.551
		c-3.387-1.905-6.773-2.928-10.16-3.069c-1.128,0-2.24,0.141-3.333,0.423c-1.094,0.283-2.1,0.724-3.017,1.323
		c-0.917,0.6-1.658,1.358-2.222,2.276c-0.565,0.917-0.847,2.011-0.847,3.281c0,1.34,0.37,2.398,1.111,3.174
		c0.742,0.777,1.712,1.447,2.911,2.011c1.199,0.565,2.54,1.147,4.021,1.746c1.482,0.6,2.964,1.182,4.445,1.747
		c1.411,0.564,2.84,1.146,4.286,1.746c1.447,0.6,2.77,1.393,3.969,2.381c1.27,0.988,2.328,2.205,3.175,3.651s1.27,3.229,1.27,5.345
		c0,2.47-0.546,4.621-1.64,6.456c-1.094,1.834-2.522,3.351-4.286,4.55c-1.764,1.199-3.74,2.1-5.927,2.699
		S158.003,94.535,155.816,94.535z"/>
	<path fill="#808080" d="M286.891,78.236v-32.49l-7.83,2.646v32.172c0,2.117,0.44,4.022,1.322,5.716
		c0.883,1.692,2.047,3.122,3.492,4.286c1.447,1.164,3.052,2.045,4.816,2.646c1.763,0.6,3.526,0.899,5.291,0.899
		c4.516,0,8.113-0.459,10.795-1.377c2.681-0.916,4.621-1.656,5.82-2.221c0.07,0.564,0.088,0.898,0.054,1.004
		c-0.036,0.106-0.054,0.441-0.054,1.006c0,0.848-0.018,1.817-0.053,2.91c-0.035,1.094-0.105,2.205-0.212,3.334
		s-0.265,2.223-0.476,3.281c-0.213,1.059-0.53,1.939-0.953,2.645c-0.776,1.482-1.853,2.682-3.229,3.6
		c-1.375,0.916-2.874,1.64-4.497,2.169c-1.622,0.529-3.298,0.935-5.026,1.218c-1.729,0.282-3.334,0.529-4.816,0.74l1.27,4.868
		c1.977-0.07,4.076-0.3,6.298-0.688c2.223-0.388,4.392-1.005,6.509-1.852c2.116-0.847,4.057-1.939,5.821-3.28
		c1.763-1.341,3.139-2.929,4.127-4.763c0.564-1.059,1.005-2.328,1.322-3.811c0.317-1.48,0.564-3.033,0.741-4.655
		c0.176-1.623,0.3-3.246,0.37-4.869s0.106-3.104,0.106-4.445V46.91h-7.727v37.781c-1.27,0.848-2.963,1.729-5.08,2.646
		c-2.116,0.918-4.197,1.412-6.244,1.482c-3.456,0.07-6.313-0.795-8.572-2.594c-2.258-1.799-3.387-4.498-3.387-8.096V78.236z"/>
	<path fill="#808080" d="M331.221,82.258c0,4.022,1.446,7.092,4.339,9.207c2.894,2.117,6.914,2.929,12.064,2.436v-4.022
		c-2.681-0.142-4.797-0.706-6.349-1.692c-1.553-0.988-2.329-3.035-2.329-6.14V51.884h8.678V46.91h-8.678V31.247l-7.726,2.752V46.91
		h-5.292v4.974h5.292V82.258z"/>
	<path fill="#808080" d="M394.254,60.986c0-1.975-0.335-3.845-1.006-5.609c-0.67-1.764-1.604-3.299-2.804-4.604
		s-2.646-2.328-4.339-3.069s-3.563-1.111-5.609-1.111c-3.176,0-6.086,0.477-8.732,1.429c-2.645,0.952-5.132,2.275-7.461,3.968V19.5
		l-7.725,2.434v71.332h7.725V57.494c1.977-1.412,4.058-2.699,6.244-3.863c2.188-1.165,4.516-1.747,6.985-1.747
		c1.553,0,2.894,0.353,4.021,1.059c1.129,0.706,2.046,1.605,2.751,2.698c0.706,1.094,1.235,2.329,1.588,3.705
		c0.354,1.375,0.529,2.733,0.529,4.074v29.846h7.832V60.986z"/>
	<path fill="#808080" d="M487.06,57.811c0-3.175-1.058-5.732-3.175-7.673c-2.116-1.94-4.586-3.228-7.408-3.863
		c-2.751-0.635-5.379-0.793-7.884-0.476s-4.709,0.758-6.615,1.323c-2.469,0.635-4.639,1.5-6.509,2.593
		c-1.869,1.094-3.791,2.346-5.767,3.757v39.793h7.725V54.424c1.2-0.847,2.735-1.64,4.604-2.381c1.87-0.741,3.828-1.146,5.874-1.217
		c3.387-0.071,6.138,0.829,8.255,2.699c2.116,1.87,3.174,4.604,3.174,8.202v31.539h7.726V57.811z"/>
	<path fill="#808080" d="M238.068,117.5l-7.62-2.752l0.106-60.853c0,0,0.388-0.405,1.164-1.217c0.776-0.811,2.029-1.728,3.757-2.751
		c1.729-1.023,3.951-1.958,6.668-2.805c2.716-0.847,6.05-1.305,10.001-1.376l0.106,0.106c3.175-0.071,5.909,0.564,8.202,1.905
		c2.293,1.341,4.198,3.175,5.714,5.503c1.518,2.329,2.646,5.01,3.387,8.043c0.741,3.034,1.111,6.245,1.111,9.631
		c0,2.963-0.37,5.821-1.111,8.572c-0.74,2.752-1.887,5.223-3.438,7.409c-1.554,2.187-3.493,3.951-5.821,5.291
		c-2.328,1.341-5.08,2.046-8.255,2.117c-2.611,0-5.045-0.371-7.302-1.111c-2.258-0.741-4.481-1.782-6.668-3.122V117.5z
		 M250.345,88.82c2.54-0.141,4.568-0.813,6.084-2.012c1.518-1.199,2.663-2.699,3.439-4.498c0.777-1.799,1.288-3.738,1.535-5.82
		c0.246-2.081,0.369-4.11,0.369-6.085c0-1.905-0.123-3.969-0.369-6.191c-0.247-2.223-0.741-4.304-1.482-6.244
		c-0.74-1.939-1.834-3.563-3.279-4.868c-1.448-1.306-3.37-2.029-5.769-2.17c-1.623-0.071-3.158,0.018-4.604,0.265
		c-1.446,0.246-2.751,0.582-3.916,1.005c-1.164,0.423-2.116,0.864-2.857,1.323c-0.741,0.458-1.252,0.829-1.535,1.111v30.162
		c0.635,0.423,1.411,0.882,2.329,1.376c0.917,0.494,1.922,0.952,3.016,1.376c1.093,0.423,2.24,0.759,3.439,1.005
		C247.946,88.802,249.145,88.891,250.345,88.82z"/>
	<path fill="#808080" d="M422.045,94.217c-3.598,0-6.703-0.705-9.313-2.117c-2.611-1.41-4.799-3.279-6.563-5.608
		c-1.764-2.328-3.069-4.991-3.916-7.99c-0.846-2.998-1.27-6.085-1.27-9.26c0-3.105,0.477-6.068,1.429-8.89
		c0.953-2.822,2.346-5.309,4.18-7.461c1.835-2.152,4.058-3.881,6.668-5.186c2.61-1.305,5.574-1.958,8.891-1.958
		c3.315,0,6.297,0.653,8.941,1.958c2.646,1.305,4.869,3.034,6.668,5.186c1.799,2.152,3.192,4.639,4.181,7.461
		c0.987,2.822,1.481,5.785,1.481,8.89c0,3.175-0.44,6.262-1.323,9.26c-0.882,2.999-2.205,5.662-3.969,7.99
		c-1.764,2.329-3.986,4.198-6.667,5.608C428.783,93.512,425.643,94.217,422.045,94.217z M422.256,89.455
		c2.682-0.071,4.852-0.741,6.509-2.012c1.658-1.27,2.946-2.893,3.863-4.867c0.917-1.977,1.535-4.128,1.853-6.456
		c0.316-2.328,0.476-4.621,0.476-6.879c0-2.117-0.211-4.216-0.635-6.297c-0.423-2.081-1.129-3.986-2.116-5.715
		c-0.988-1.729-2.312-3.157-3.969-4.286c-1.658-1.129-3.723-1.764-6.191-1.905c-2.681,0.141-4.833,0.776-6.456,1.905
		c-1.623,1.129-2.91,2.557-3.863,4.286c-0.951,1.729-1.587,3.634-1.904,5.715s-0.477,4.18-0.477,6.297h0.106
		c0,2.258,0.193,4.567,0.582,6.932c0.388,2.363,1.076,4.515,2.063,6.456c0.987,1.939,2.311,3.563,3.969,4.868
		C417.723,88.802,419.787,89.455,422.256,89.455z"/>
	<path fill="#FF661A" d="M201.627,94.217c-3.598,0-6.702-0.705-9.313-2.117c-2.61-1.41-4.798-3.279-6.561-5.608
		c-1.764-2.328-3.07-4.991-3.916-7.99c-0.847-2.998-1.27-6.085-1.27-9.26c0-3.105,0.476-6.068,1.429-8.89
		c0.952-2.822,2.345-5.309,4.18-7.461c1.834-2.152,4.057-3.881,6.667-5.186c2.611-1.305,5.574-1.958,8.89-1.958
		s6.297,0.653,8.943,1.958c2.646,1.305,4.868,3.034,6.667,5.186c1.799,2.152,3.193,4.639,4.181,7.461
		c0.987,2.822,1.481,5.785,1.481,8.89c0,3.175-0.441,6.262-1.323,9.26c-0.882,2.999-2.204,5.662-3.968,7.99
		c-1.764,2.329-3.987,4.198-6.668,5.608C208.365,93.512,205.226,94.217,201.627,94.217z M201.839,89.455
		c2.681-0.071,4.851-0.741,6.509-2.012c1.658-1.27,2.945-2.893,3.862-4.867c0.918-1.977,1.535-4.128,1.852-6.456
		c0.318-2.328,0.477-4.621,0.477-6.879c0-2.117-0.212-4.216-0.635-6.297c-0.424-2.082-1.129-3.986-2.117-5.715
		c-0.988-1.729-2.311-3.157-3.969-4.286c-1.658-1.129-3.721-1.764-6.191-1.905c-2.681,0.141-4.833,0.776-6.455,1.905
		c-1.623,1.129-2.911,2.557-3.863,4.286c-0.953,1.729-1.588,3.633-1.905,5.715c-0.318,2.081-0.477,4.18-0.477,6.297h0.106
		c0,2.258,0.194,4.567,0.582,6.932c0.388,2.363,1.076,4.515,2.064,6.456c0.988,1.939,2.311,3.563,3.969,4.868
		C197.306,88.802,199.37,89.455,201.839,89.455z"/>
</g>
</svg>
